<svg width="350" height="350" viewBox="0 0 350 350" fill="none" xmlns="http://www.w3.org/2000/svg">
<path d="M193.184 316.12L157.83 316.178L160.615 275.55L17.1741 275.512L43.6593 251.453L162.271 251.453L175.111 72.964C175.218 71.4597 174.842 70.4923 175.507 69.1016C176.13 70.4889 175.8 71.4734 175.903 72.9571L188.636 251.377L333.296 250.84C333.651 250.84 333.871 250.864 333.954 250.895C334.036 250.926 333.84 251.16 333.73 251.436L240.842 345.914L278.958 275.567L190.389 275.533L193.181 316.12L193.184 316.12Z" fill="white"/>
<path d="M114.983 77.1495C129.252 77.1495 140.819 65.5821 140.819 51.313C140.819 37.0439 129.252 25.4766 114.983 25.4766C100.713 25.4766 89.1461 37.0439 89.1461 51.313C89.1461 65.5821 100.713 77.1495 114.983 77.1495Z" fill="white"/>
<path d="M175.504 55.6729C189.773 55.6729 201.341 44.1055 201.341 29.8365C201.341 15.5674 189.773 4 175.504 4C161.235 4 149.668 15.5674 149.668 29.8365C149.668 44.1055 161.235 55.6729 175.504 55.6729Z" fill="white"/>
<path d="M236.026 77.1495C250.295 77.1495 261.862 65.5821 261.862 51.313C261.862 37.0439 250.295 25.4766 236.026 25.4766C221.757 25.4766 210.189 37.0439 210.189 51.313C210.189 65.5821 221.757 77.1495 236.026 77.1495Z" fill="white"/>
<path d="M149.371 203.948C127.536 215.328 99.2649 226.937 75.0984 232.112C61.3745 235.053 45.5193 236.409 32.1948 231.661C13.9847 225.175 8.20729 207.763 9.08527 189.718C9.64304 178.277 11.9499 167.194 16.0402 156.514C26.9752 127.961 55.9689 100.096 82.5491 84.5547C72.0995 95.1282 62.4625 105.974 54.33 118.472C49.107 126.498 44.6517 134.578 41.2156 143.51C35.9753 157.127 33.1692 172.92 37.411 187.119C42.2175 203.215 55.1357 212.714 71.2456 215.958C85.0556 218.74 106.454 216.233 119.72 212.435L149.375 203.945L149.371 203.948Z" fill="white"/>
<path d="M278.137 232.573C253.499 227.657 223.916 215.616 201.492 203.848C212.599 207.105 222.935 210.648 234.049 213.079C253.709 217.379 276.381 220.757 294.722 210.583C304.104 205.38 310.818 196.959 313.741 186.619C317.735 172.493 314.998 157.044 309.789 143.519C306.077 133.889 301.171 125.182 295.435 116.609C287.557 104.841 278.361 94.601 268.459 84.5508C294.994 100.079 323.853 127.792 334.864 156.272C339.103 167.235 341.454 178.652 341.94 190.403C342.676 208.186 336.758 225.229 318.889 231.633C306.246 236.164 291.21 235.18 278.134 232.57L278.137 232.573Z" fill="white"/>
</svg>
