<svg width="400" height="680" viewBox="0 0 400 680" fill="none" xmlns="http://www.w3.org/2000/svg">
<mask id="path-1-inside-1_3304_665" fill="white">
<path d="M265.283 273.761C251.098 259.576 232.708 250.358 212.855 247.482C193.003 244.606 172.752 248.226 155.126 257.803C137.499 267.379 123.441 282.397 115.05 300.618C106.659 318.838 104.383 339.283 108.564 358.903L121.045 356.243C117.439 339.316 119.402 321.676 126.641 305.956C133.881 290.236 146.01 277.278 161.218 269.016C176.426 260.754 193.897 257.631 211.026 260.112C228.154 262.593 244.021 270.546 256.259 282.784L265.283 273.761Z"/>
</mask>
<path d="M265.283 273.761C251.098 259.576 232.708 250.358 212.855 247.482C193.003 244.606 172.752 248.226 155.126 257.803C137.499 267.379 123.441 282.397 115.05 300.618C106.659 318.838 104.383 339.283 108.564 358.903L121.045 356.243C117.439 339.316 119.402 321.676 126.641 305.956C133.881 290.236 146.01 277.278 161.218 269.016C176.426 260.754 193.897 257.631 211.026 260.112C228.154 262.593 244.021 270.546 256.259 282.784L265.283 273.761Z" stroke="white" stroke-width="38" mask="url(#path-1-inside-1_3304_665)"/>
<mask id="path-2-inside-2_3304_665" fill="white">
<path d="M133.761 405.282C147.946 419.467 166.336 428.685 186.189 431.561C206.041 434.437 226.292 430.817 243.918 421.24C261.545 411.664 275.602 396.646 283.994 378.425C292.385 360.205 294.661 339.76 290.48 320.14L277.999 322.8C281.605 339.727 279.642 357.367 272.402 373.087C265.163 388.807 253.034 401.765 237.826 410.027C222.618 418.289 205.147 421.412 188.018 418.931C170.89 416.45 155.023 408.497 142.785 396.259L133.761 405.282Z"/>
</mask>
<path d="M133.761 405.282C147.946 419.467 166.336 428.685 186.189 431.561C206.041 434.437 226.292 430.817 243.918 421.24C261.545 411.664 275.602 396.646 283.994 378.425C292.385 360.205 294.661 339.76 290.48 320.14L277.999 322.8C281.605 339.727 279.642 357.367 272.402 373.087C265.163 388.807 253.034 401.765 237.826 410.027C222.618 418.289 205.147 421.412 188.018 418.931C170.89 416.45 155.023 408.497 142.785 396.259L133.761 405.282Z" stroke="white" stroke-width="38" mask="url(#path-2-inside-2_3304_665)"/>
<path d="M125.513 382.099L88.6695 359.386L134.948 339.858L125.513 382.099Z" fill="white"/>
<path d="M276.534 302.027L309.917 329.576L261.399 342.577L276.534 302.027Z" fill="white"/>
<rect x="7.5" y="7.5" width="385" height="665" rx="87.5" stroke="white" stroke-width="15"/>
</svg>
