<svg width="393" height="201" viewBox="0 0 393 201" fill="none" xmlns="http://www.w3.org/2000/svg">
<g clip-path="url(#clip0_400_183)">
<path d="M209.316 58.978C208.974 59.2211 208.861 64.9417 208.99 65.7186C209.247 67.2934 213.63 70.4378 215.28 71.2542C218.213 72.7022 219.785 72.4829 222.781 73.1356C224.444 73.4976 225.698 73.5637 224.538 75.0645C221.769 78.6449 210.118 82.1248 205.16 83.3271C194.315 85.9589 187.813 86.0249 177.206 82.6507C174.918 81.924 173.296 80.8962 171.46 79.5671C170.02 82.2094 170.994 85.2296 171.161 88.0146C168.715 88.2788 165.012 89.3173 162.714 88.2841C162.453 88.1652 161.692 84.3999 161.167 83.4592C160.057 81.4695 157.385 79.5565 156.926 77.2577C156.587 75.5507 157.523 73.2994 157.501 71.5106C157.448 66.8654 154.637 67.2379 150.984 65.3566C146.329 62.96 147.234 57.3609 140.902 55.8811C136.209 54.7819 134.81 56.5523 130.142 53.3075C128.428 52.1185 126.696 49.7245 125.027 48.8948C122.672 47.7269 115.932 45.798 113.19 45.3779C106.667 44.3817 104.706 47.0293 98.871 46.8496C95.579 46.7492 91.577 46.1362 88.254 45.7399C84.542 45.2959 80.807 44.7331 77.132 44.1307C75.217 40.8119 73.246 37.4958 71.134 34.2589C66.446 27.0823 61.486 18.6982 56.254 11.9232C52.843 7.50525 51.444 7.05868 45.377 6.0176C31.403 3.62364 16.929 2.2972 2.88901 0.244103C1.54401 0.574395 0.0160217 0.653664 0.0660095 2.10959C10.922 21.2824 22.846 40.0958 33.846 59.2448C35.839 64.0803 41.535 65.8163 43.494 70.4061C44.981 73.8913 44.946 77.4505 44.993 80.9992C45.056 85.8373 45.811 88.9764 51.19 91.3862C52.246 91.8592 53.403 92.0098 54.528 92.5409C55.654 93.072 57.144 94.4883 58.188 94.7446C59.455 95.0564 61.369 94.9005 62.979 95.207C67.509 96.0711 69.351 99.0701 71.718 102.117C74.214 105.332 76.151 108.952 78.93 111.88C82.174 115.299 83.614 117.241 89.188 117.791C91.046 117.973 94.388 117.078 93.875 119.398L87.123 125.076C88.959 127.502 91.279 129.949 94.646 130.887C96.61 131.433 100.98 132.023 102.98 131.814C105.649 131.534 107.186 128.989 109.402 128.5C110.543 128.249 111.716 128.419 112.87 128.376C113.288 132.12 108.865 134.802 107.84 138.401C109.031 138.631 110.138 139.308 111.307 139.588C113.643 140.148 120.748 139.604 123.181 139.02C125.615 138.436 127.777 136.018 130.145 135.241C130.833 137.268 130.94 138.906 130.164 140.927C129.771 141.95 127.784 144.352 128.155 145.2C128.331 145.599 129.645 146.003 130.154 146.186C130.849 146.437 135.939 147.906 136.275 147.906H146.8C146.461 149.433 146.055 152.58 145.297 153.899C144.578 155.148 141.896 156.483 141.481 158.039C141.575 158.372 147.586 160.808 148.51 161.115C150.846 161.886 154.798 162.93 157.3 162.661C160.739 162.291 163.16 159.704 166.907 160.306L167.219 200.155C174.707 200.1 182.205 200.221 189.696 200.166C249.034 199.722 308.479 199.682 367.805 199.088C374.551 199.022 382.671 199.619 389.195 199.112C390.528 199.009 392.609 197.653 392.496 196.604C392.445 196.147 388.292 193.375 387.444 192.641C378.647 185.017 369.505 177.236 361.876 168.727C358.037 164.449 355.522 160.288 350.53 156.618C348.816 155.357 345.33 153.78 344.091 152.525C340.674 149.061 336.87 131.251 335.399 125.784C332.878 116.417 330.709 104.429 325.93 95.7382C324.594 93.3046 322.403 91.2647 320.844 88.9288C325 87.1003 329.803 85.7686 332.092 82.0218C330.306 79.25 328.307 76.8613 327.285 73.7513C324.978 66.7253 324.547 58.5208 322.265 51.3152C321.821 49.9121 321.299 48.8023 320.542 47.5076C322.321 46.7017 323.943 46.3978 325.449 45.1533C331.737 39.9611 334.321 29.574 329.461 23.103C324.6 16.6319 317.681 12.893 308.218 14.7135C306.678 15.0095 303.522 16.653 303.05 16.6926C302.503 16.7376 301.044 15.8814 300.284 15.6806C295.917 14.5286 294.471 14.1904 290.384 12.3856C289.479 11.984 287.872 11.7805 287.246 11.3287C286.451 10.7527 285.395 7.62414 284.537 6.48001C279.519 -0.220954 264.891 -2.49865 258.34 3.69499C257.126 4.84177 255.051 8.2583 253.602 8.689C251.854 9.20954 249.006 9.06158 246.956 9.43943C246.114 9.59269 240.751 11.0565 240.414 11.334C239.701 14.0001 239.735 16.9014 239.327 19.6573C239.119 19.9427 232.847 22.5718 232.263 22.696C229.452 23.3038 226.12 22.5798 223.312 22.5454C216.512 22.4635 209.772 22.6273 203.013 23.1981C201.677 28.171 202.633 33.7569 204.132 38.6558C205.362 42.6748 207.578 47.0346 210.759 50.2424C214.205 53.7197 218.087 51.2333 220.643 53.2864C223.199 55.3395 220.367 57.4507 218.021 58.2328C217.569 58.3834 215.12 58.9727 214.818 58.9727H209.32L209.316 58.978ZM21.133 10.1608L48.26 13.5668C54.337 23.9353 61.941 33.638 68.122 43.9431L46.106 52.3748C45.852 52.3668 45.016 49.5765 44.751 49.0348C43.877 47.2301 42.475 45.1797 41.403 43.404C34.691 32.3089 26.389 21.832 21.136 10.1608H21.133ZM232.568 65.5759H238.695C239.487 65.5759 243.882 64.3868 244.617 63.9535C247.45 62.2835 247.33 58.2143 245.133 56.2088C239.207 50.8026 219.424 50.4723 214.145 43.4463C213.683 42.8307 211.435 38.4708 211.561 38.0533C211.935 36.8246 217.996 35.0463 218.914 32.0684C219.175 31.2176 218.726 29.4287 219.578 29.1935C226.503 28.8342 233.765 29.8964 240.493 28.2899C243.539 27.5632 244.341 27.3254 245.363 24.728C246.416 22.0513 246.62 18.9862 247.161 16.2091C251.886 14.88 256.256 14.1771 261.226 14.9857C263.024 15.279 265.005 16.2884 266.363 16.4733C267.887 16.6821 269.076 16.2382 270.415 16.2144C277.834 16.0876 283.637 16.1483 290.591 18.5528C291.321 18.8065 295.653 20.5399 295.948 20.783C296.87 21.5519 297.313 25.2406 298.114 25.4414C300.315 25.9857 305.103 22.1464 307.241 21.2877C311.673 19.5067 315.833 19.7076 319.599 22.4239C320.583 23.1347 324.739 27.2594 325.091 28.1023C327.084 32.8849 323.686 38.8434 317.398 39.4458C318.247 36.3516 320.407 32.3802 317.709 29.5503C315.779 27.5236 311.903 26.9238 309.526 28.747C309.029 29.1275 308.816 29.7405 308.278 30.0761C307.112 30.8054 305.081 30.6653 304.594 32.256C303.584 35.5457 308.357 37.2183 309.913 39.533C310.507 40.4182 313.066 45.7319 312.368 46.3106C312.236 46.4216 311.142 46.2948 310.806 46.1732C308.844 45.4624 308.203 41.6469 304.845 41.668C303.622 41.6759 304.348 44.6116 304.606 45.3118C305.622 48.0783 309.649 48.3954 311.739 50.4036C310.705 50.9585 305.738 48.9503 305.455 50.1446C305.398 50.3904 307.52 53.2335 307.803 53.9734C308.064 54.6525 308.599 56.658 308.599 57.2657V62.6746C306.25 62.4843 306.335 60.315 305.521 59.0572C304.569 57.5855 301.711 56.5867 299.803 56.3409C299.979 59.8367 301.136 62.8701 300.739 66.4954C300.365 69.9199 297.052 74.6708 294.307 77.1916C293.396 78.0292 287.809 82.36 286.615 81.4035C285.866 77.9869 284.763 73.6905 281.107 71.6532C279.183 75.6485 279.507 78.8457 274.763 81.3586C274.118 81.6994 269.195 83.7869 268.856 83.7869H263.672C264.049 81.9663 265.542 79.6965 265.495 77.8469C265.479 77.2788 264.127 74.322 263.819 74.2771C262.342 74.0631 259.632 78.3727 258.5 79.3108C256.117 81.2846 250.251 81.7047 247.022 82.2041V77.8495C247.022 77.4453 244.391 75.1226 243.794 74.7553C239.968 72.3878 234.925 73.1118 233.181 68.6278C233.008 68.1839 232.347 65.7661 232.568 65.5785V65.5759ZM105.328 52.1211C105.756 51.7459 108.5 51.5107 109.236 51.6058C110.311 51.7459 111.292 52.5782 112.229 52.787C115.118 53.4264 119.387 53.5902 121.682 55.6671C122.417 56.333 122.326 57.0913 123.071 57.9316C124.313 59.332 127.287 61.3402 129.189 62.0299C132.21 63.1238 135.423 63.0472 138.595 63.4964C137.853 68.3133 142.804 70.0441 146.423 72.623C146.737 75.8678 145.75 79.7943 147.922 82.7088C148.994 84.1462 151.425 85.0129 152.717 86.3341C154.625 88.2815 156.411 93.2411 158.052 95.8386C161.749 101.694 169.665 110.578 177.106 113.085C179.57 113.915 182.18 114.248 184.666 114.916C186.631 115.445 188.077 116.47 190.388 116.705C195.814 117.255 197.417 113.431 201.938 113.59C204.626 113.685 207.641 116.023 209.634 117.429C212.91 118.687 213.391 114.126 214.208 112.57C214.563 111.893 218.188 108.448 219.046 107.663C229.458 98.148 244.91 91.5236 260.644 92.7919C271.49 93.6666 288.664 102.162 298.202 96.3036C303.154 93.2623 301.874 88.4876 304.543 85.2666C304.851 84.894 308.511 82.9202 309.004 83.0259C310.724 83.3958 311.532 89.6634 312.139 91.2303C314.968 98.5443 317.926 99.5194 317.087 108.469C316.782 111.732 313.792 115.474 310.485 117.168C310.96 118.047 312.689 118.254 313.223 118.689C315.487 120.547 313.361 129.214 312.654 131.793C311.915 132.224 306.785 130.02 305.763 129.576C302.739 128.257 298.545 125.29 295.942 124.368C295.562 124.233 295.213 124.085 294.785 124.167L290.051 143.15C287.218 143.522 285.257 141.326 283.169 140.378C280.836 139.318 277.328 138.354 274.772 137.403C272.773 136.66 268.868 134.068 267.375 136.639C265.709 140.777 264.624 145.557 262.656 149.565C262.125 150.651 260.619 153.695 258.959 153.346C256.215 152.768 246.739 143.406 245.605 143.483C244.794 143.535 242.316 149.663 241.738 150.73C239.666 154.533 237.101 158.179 234.3 161.63C227.591 156.612 220.558 151.914 214.84 146.051C214.488 145.766 213.045 145.66 212.809 145.829C212.25 146.228 211.923 150.971 211.699 151.888C211.281 153.584 209.342 154.657 208.842 156.086C208.534 156.972 208.707 158.478 208.216 159.257C207.955 159.672 207.191 159.807 206.811 160.187C205.582 161.419 204.258 162.859 203.346 164.275L202.705 164.122C201.727 161.82 194.553 146.614 192.513 146.6C190.646 148.463 190.111 150.974 188.64 153.106C186.99 155.5 185.588 156.308 182.906 157.788C182.177 158.19 176.952 160.824 176.65 160.581L172.588 140.898L171.309 140.919C167.602 143.649 163.77 146.944 159.268 148.751C157.935 149.288 156.822 149.666 155.282 149.497C155.445 143.628 155.175 137.799 154.647 131.954C153.452 129.66 152.229 132.226 151.183 132.987C148.209 135.151 143.204 136.816 139.261 136.826C140.145 133.325 140.569 129.753 141.239 126.218C141.541 124.619 143.493 120.048 141.465 119.014C139.001 117.757 136.963 122.745 134.376 123.092C133.628 123.192 132.798 123.068 132.04 123.105C132.342 121.765 133.908 120.893 134.219 119.527C135.373 114.454 134.873 106.075 130.635 101.987C127.359 98.8271 117.746 98.687 113.08 97.9947C107.648 97.1888 106.938 95.8993 102.92 93.3363C102.341 92.969 99.804 91.8196 99.682 91.698C99.647 91.6663 99.566 91.1405 99.839 91.1722C102.612 91.4946 106.513 92.6651 109.255 92.2265C110.163 92.0811 111.946 90.25 111.864 89.5022C111.697 87.9723 104.089 84.0062 102.288 83.047C101.335 82.5397 98.317 81.451 97.802 81.0098C97.321 80.5976 96.331 76.0713 96.538 75.8731C101.122 77.4823 104.074 81.6651 109.295 82.1777C113.26 82.5661 120.409 81.3929 116.781 76.9459C114.561 74.2243 110.732 73.8332 107.525 72.3165C103.574 70.4457 104.596 69.3465 102.319 66.6619C99.776 63.6575 95.378 61.6256 94.652 57.6674C98.968 57.9897 101.207 61.9242 104.234 63.7342C105.41 64.437 106.497 64.4 107.519 64.9338C110.333 66.4029 112.398 70.0863 116.41 71.1882C122.185 72.7762 127.293 69.8353 122.769 65.0527C120.836 63.0075 117.85 62.6508 116.322 61.2319C114.979 59.99 114.203 57.6806 112.568 56.4677C110.767 55.1334 107.78 53.8888 105.74 52.713C105.52 52.5862 104.847 52.5491 105.331 52.129L105.328 52.1211ZM56.635 63.2004C59.678 64.9549 62.642 67.8536 64.227 70.673C64.878 71.8303 66.173 76.309 67.77 76.3804C68.285 76.4015 70.238 75.6802 70.602 75.3287C73.485 72.5384 68.128 64.77 67.317 61.615C67.833 61.8607 68.502 61.9083 68.996 62.1805C71.002 63.285 74.629 70.155 76.167 72.2557C76.943 73.3153 77.5 74.2401 79.244 73.6165C80.863 73.0378 81.36 69.3861 81.429 68.0412C81.451 67.5867 80.596 65.3381 81.917 65.5759C82.068 65.6023 83.312 66.9473 83.46 67.1851C84.359 68.6278 86.588 78.4546 85.796 79.5195C85.692 79.6595 82.501 80.8856 82.244 80.8962C80.093 80.9834 81.222 78.9038 78.829 79.6041C77.698 79.937 77.726 82.7246 77.314 82.9492C77.085 83.0734 76.085 82.9968 75.535 83.1686C74.758 83.4117 73.806 84.059 73.13 84.067C71.769 84.0828 70.373 82.5555 69.42 82.7616C68.443 82.973 67.782 84.9495 65.513 85.3036C61.979 85.8532 60.586 83.5094 58.436 83.8265C56.999 84.0379 57.43 84.9918 56.908 85.729C56.333 86.5402 54.607 88.152 53.412 87.9618C51.969 87.7345 49.319 84.9997 49.109 83.8979C48.794 82.2649 49.731 81.0811 49.954 79.6252C50.564 75.6458 50.589 71.5317 49.09 67.6871C49.652 67.2035 52.447 70.4325 52.714 70.8421C54.139 73.0352 53.783 74.6338 54.51 76.7239C55.236 78.8087 60.259 78.8774 60.696 76.5099C61.611 71.5476 58.018 67.695 56.635 63.2004ZM315.194 132.868C316.012 132.218 321.039 136.76 322.001 137.31C322.963 137.86 325.864 138.528 326.119 138.734C326.697 139.202 326.612 143.985 326.82 145.139C327.974 151.515 333.516 158.512 339.068 162.824C344.62 167.137 352.712 169.552 355.095 176.144C354.859 176.292 350.838 176.041 349.929 176.163C348.578 176.345 347.411 177.106 345.525 177.212C336.072 177.732 330.529 170.775 322.808 168.302C320.639 167.607 320.139 168.384 320.212 170.197C320.363 173.97 322.673 176.892 323.532 180.359C324.163 182.906 324.814 183.897 321.086 183.466C315.499 182.819 310.149 180.237 306.077 177.075C304.741 176.036 301.657 172.4 299.994 172.696C299.686 172.752 299.249 174.39 299.205 174.726C298.913 176.964 299.381 181.331 299.881 183.601C300.136 184.758 300.761 185.823 301.057 186.967C300.079 187.034 299.152 186.793 298.228 186.574C294.634 185.723 288.517 182.1 285.659 179.979C283.537 178.406 281.644 176.438 279.535 174.831C279.032 176.06 278.667 177.397 278.479 178.689C278.202 180.56 277.9 183.953 278.152 185.757C278.24 186.397 278.736 186.867 278.752 187.493L260.283 178.996C259.902 178.443 260.638 173.787 260.927 172.918C261.238 171.98 262.1 171.039 262.505 170.022C263.618 167.232 263.879 163.998 264.772 161.104C265.47 158.84 266.526 156.702 267.447 154.509C267.862 154.255 272.075 157.326 272.82 157.778C277.199 160.438 281.399 162.33 286.671 163.559C288.064 163.884 289.727 164.278 291.025 163.58C291.088 162.383 290.884 161.086 290.994 159.905C291.403 155.542 293.018 149.526 294.147 145.137C294.238 144.78 294.109 144.468 294.619 144.22C296.564 145.208 297.668 146.87 299.325 148.178C303.629 151.576 308.023 153.5 314.103 152.926C317.225 152.633 315.333 149.142 315.201 147.245C314.861 142.436 317.052 137.527 315.201 132.868H315.194Z" fill="white"/>
<path d="M266.236 28.6966C264.806 28.6305 259.471 30.0548 258.223 30.7867C257.871 30.9928 257.06 31.5292 256.899 31.8066C256.739 32.0841 258.05 34.3644 258.38 34.7898C259.549 36.2907 263.916 38.2117 266.029 38.3913C269.968 38.7296 272.835 38.2434 275.755 36.0106C279.138 33.4264 277.387 33.3868 274.325 31.6877C271.911 30.3481 269.223 28.834 266.239 28.6966H266.236Z" fill="white"/>
</g>
<defs>
<clipPath id="clip0_400_183">
<rect width="393" height="201" fill="white" transform="matrix(-1 0 0 1 393 0)"/>
</clipPath>
</defs>
</svg>
