<svg width="817" height="192" viewBox="0 0 817 192" fill="none" xmlns="http://www.w3.org/2000/svg">
<path d="M276.805 175.809C274.847 178.637 271.387 180.827 268.354 182.392C258.938 187.233 261.717 183.301 257.474 176.559C253.37 170.042 247.538 165.148 243.66 157.934C241.335 153.606 239.624 146.983 237.186 143.181C234.328 138.724 227.57 134.639 225.225 129.184C223.969 127.974 222.452 129.202 221.053 129.225C214.944 129.331 208.88 129.396 202.783 129.804C198.786 129.036 199.672 121.739 193.043 127.46L208.042 103.256C209.134 101.443 207.741 99.4362 207.841 97.7477C208.201 91.5608 210.079 85.2974 214.577 80.8816C216.183 80.5392 216.247 84.4355 216.767 85.7577C217.753 88.2608 219.476 90.6044 222.002 91.7262C223.832 92.5349 226.33 92.1985 227.523 93.8751C229.961 101.922 236.194 111.373 238.058 119.307C238.696 122.017 238.295 124.018 239.358 126.858C241.171 131.71 246.666 135.624 248.927 140.288C253.483 149.692 255.832 167.615 263.507 174.652C266.4 177.303 273.117 176.323 276.812 175.804L276.805 175.809Z" fill="white"/>
<path d="M211.915 184.068C213.208 185.839 210.079 184.581 209.3 184.617C207.393 184.705 205.611 185.691 203.374 185.231C202.057 184.959 201.614 183.725 200.924 183.584C199.885 183.365 194.531 186.718 194.802 182.049C194.991 178.814 201.26 176.836 203.191 173.276C206.555 167.072 206.425 157.048 209.253 151.038C211.018 147.295 215.208 145.766 216.496 140.589C216.861 139.125 216.1 137.3 217.542 136.309C219.453 136.94 227.9 141.858 227.753 143.57C227.706 144.101 223.704 151.156 223.013 152.402C217.653 162.054 210.546 170.879 205.995 180.815C205.877 182.911 211.65 183.702 211.921 184.074L211.915 184.068Z" fill="white"/>
<path d="M255.971 25.0531C258.82 28.2529 257.617 33.8847 257.321 37.5508C257.25 38.4127 257.978 39.3514 257.942 39.8531C257.912 40.2546 256.732 40.3726 256.259 41.1696C255.621 42.2499 255.52 45.125 254.394 45.8275C252.735 46.8607 250.356 44.7235 249.641 45.1664C249.33 45.3612 245.93 50.9753 245.804 51.3708C244.53 55.5801 247.694 60.1198 247.31 64.6595C247.05 67.7354 245.109 69.5005 244.383 72.2457C244.601 73.013 251.265 75.8231 252.451 76.0178C257.073 76.7735 260.945 73.3968 265.74 75.7108C270.438 77.9779 266.466 80.7112 266.395 82.3406C266.365 83.0312 268.767 90.7353 269.258 91.6503C270.645 94.2361 274.612 96.9044 276.671 100.157C278.1 102.412 281.513 109.39 281.524 111.828C281.536 116.522 276.748 119.113 273.814 121.823C272.492 123.045 271.984 125.324 269.977 125.684C267.972 126.044 261.111 124.556 259.672 123.045C255.74 118.924 255.427 104.774 254.725 99.1299C257.978 93.6812 265.945 90.6527 264.394 83.2379C261.589 84.885 262.876 81.7147 261.649 81.4431C260.845 81.266 257.464 80.9945 256.378 80.9356C255.356 80.8825 254.377 81.5376 253.485 81.4728C249.648 81.2072 245.633 80.3805 241.762 80.2034C240.428 79.8433 241.625 78.5211 240.883 77.6119C238.355 74.5303 231.266 76.75 231.36 80.6109C231.407 82.5177 238.839 84.6075 240.663 84.8554C247.25 85.7469 253.72 83.7987 260.273 84.7137C264.699 87.0868 259.087 93.3388 256.436 93.3268C254.558 93.3268 253.042 90.7412 250.977 90.4166C249.317 90.1567 245.373 91.0246 242.871 90.9006C239.033 90.7116 226.367 89.2654 223.715 87.0574C223.013 86.4729 222.719 86.2781 222.523 85.2923C221.644 80.7583 227.977 69.7544 229.62 64.7009C230.339 62.4812 231.597 53.7618 233.131 52.8823C234.837 51.9022 236.177 53.1182 238.114 50.2019C238.762 49.2279 240.593 44.3634 240.706 43.2948C240.883 41.6242 235.482 37.0431 235.475 32.8398C235.475 29.0971 238.799 27.6624 239.477 25.6257C240.175 23.5536 239.707 19.4862 242.977 18.518C248.385 16.9182 248.615 20.5665 251.094 22.5384C252.25 23.4593 254.831 23.8075 255.947 25.0591L255.971 25.0531ZM267.782 95.1393C267.204 95.3104 262.775 99.7145 262.711 100.128C262.617 100.689 264.512 103.274 264.712 103.274C265.173 103.286 270.792 96.9339 270.898 96.4853C271.229 95.0271 268.927 94.7969 267.788 95.1393H267.782Z" fill="white"/>
<path d="M232.561 50.8215C233.252 51.7662 228.92 55.2964 227.851 55.8276C222.303 58.5847 195.568 65.9993 189.7 65.9108C188.106 65.8871 185.379 65.5684 184.163 64.5709C182.971 59.5351 192.445 53.366 196.37 51.4827C207.58 46.1105 221.264 45.4434 232.561 50.8156V50.8215Z" fill="white"/>
<path d="M226.657 60.8393C227.591 61.7426 221.529 72.7348 220.34 74.2403C219.969 74.7126 220.36 75.3264 219.001 74.984C216.923 72.9592 218.399 62.9054 219.715 61.5595C220.34 60.9219 226.356 60.5441 226.663 60.8393H226.657Z" fill="white"/>
<path d="M134.318 19.851C134.744 29.4197 136.838 38.8172 139.454 47.9899C140.851 52.8866 143.147 58.0955 144.316 62.9047C145.69 68.5553 144.084 73.9927 144.594 79.7386C145.169 86.1926 148.489 90.4002 146.231 97.7376C145.161 101.207 137.798 104.138 134.398 104.546C117.279 106.59 97.3249 100.114 84.692 116.852C80.6865 122.16 81.7412 126.452 81.9735 132.818C83.9914 135.971 94.4731 141.881 94.3475 145.494C94.1875 150.185 84.2009 157.172 81.886 161.204C82.1181 167.579 81.2919 174.592 81.8098 180.894C81.9163 182.2 82.0001 184.298 83.306 184.721C84.2009 185.01 87.6236 185.227 88.823 185.288C90.6277 185.38 102.663 185.467 103.055 184.835C104.776 176.009 97.6752 177.799 93.2395 174.787C92.0669 173.991 87.9738 169.391 88.3205 168.047C88.6251 166.859 98.2158 160.249 99.9445 159.103C101.673 157.957 106.596 154.347 108.241 154.431C110.457 154.541 110.076 156.487 109.592 158.101C108.545 161.593 102.556 166.292 102.731 169.079C102.834 170.709 108.115 177.578 109.147 180.186C109.581 181.286 109.889 183.83 110.304 184.355C111.032 185.277 114.854 184.854 116.232 184.892C121.091 185.026 126.113 185.265 131.016 185.125C133.99 185.037 133.385 182.174 132.6 179.946C130.411 173.732 115.631 177.243 114.911 171.356C113.994 163.87 127.811 155.752 129.193 149.168C130.933 140.898 121.319 143.548 120.089 139.177C119.389 136.683 122.328 135.971 124.209 135.822C132.532 135.16 147.51 140.472 148.378 150.105C148.786 154.617 147.815 160.409 148.009 165.305C148.123 168.268 148.447 171.84 148.771 174.81C148.915 176.131 149.879 183.48 150.252 183.978C151.291 185.372 155.963 184.839 157.68 184.888C161.959 185.018 165.972 185.067 170.263 184.968C172.205 184.923 175.97 186.343 173.956 182.337C171.394 177.246 156.682 178.933 157.566 169.155C158.068 163.569 162.485 148.616 164.944 143.445C170.602 131.543 179.865 129.205 178.442 113.212C177.474 102.383 168.516 96.5267 164.171 87.9251C162.698 85.0084 161.316 78.2575 165.79 77.3587C171.512 76.2088 177.044 79.9861 180.421 73.3493C181.579 71.076 181.891 69.8423 179.98 67.9498C177.532 65.5321 171.272 61.233 168.184 59.5844C164.259 57.4901 159.187 57.6652 160.356 52.1516C160.908 49.5434 164.05 44.525 165.139 41.3416C166.818 36.445 169.772 24.9 166.482 20.5935C163.939 17.2579 161.872 19.5577 160.368 22.128C157.249 27.4511 152.17 41.3911 153.046 47.3312C153.435 49.9624 154.942 51.8852 154.386 54.9391C154.013 56.9762 152.037 58.5715 150.274 56.9495C147.963 54.8209 148.451 46.8591 147.914 43.7177C146.981 38.2764 141.955 29.7054 138.887 24.98C138.357 24.1612 135.292 18.8571 134.314 19.8548L134.318 19.851ZM166.559 66.145C165.496 67.1428 159.039 67.1923 158.35 64.8277C157.124 60.6314 167.023 59.1541 167.415 63.4263C167.48 64.1079 167.012 65.7147 166.559 66.1412V66.145Z" fill="white"/>
<path d="M812.092 27.0153C813.216 27.9444 815.816 30.0939 816.215 31.3468C816.194 33.5 816.844 35.7037 816.934 37.8172C817.262 45.4505 816.258 54.1387 816.189 61.9017C815.869 98.0448 816.064 134.159 815.466 170.147C815.394 174.49 815.786 179.206 815.494 183.473C815.383 185.133 814.263 187.347 814.713 189.346C813.691 190.03 812.759 189.4 811.718 189.382C800.801 189.184 789.813 189.137 778.976 189.025C753.609 188.762 727.241 189.814 701.969 187.596C694.448 186.937 697.505 182.382 697.49 176.999C697.436 156.872 697.084 136.701 697.451 116.566C697.479 115.061 698.074 113.578 697.844 111.885C697.667 110.586 696.169 109.815 696.359 108.728C696.385 108.573 698.379 106.87 698.714 106.683C700.881 105.451 708.109 105.307 710.956 104.893C716.144 104.141 721.761 102.765 726.861 102.185C731.311 101.678 736.298 101.977 740.825 101.663L741.674 101.073L741.712 64.4546C741.166 61.5416 734.393 64.8145 733.436 61.9089C733.433 53.9119 732.723 45.8466 733.069 37.8172C733.169 35.4949 734.12 33.1183 733.472 30.8681C735.21 30.2522 736.258 28.7183 737.879 27.8831C739.498 27.0477 741.868 26.5581 743.649 25.737C752.265 21.7692 762.099 17.0344 770.518 12.674C772.387 11.7055 773.104 10.2688 775.743 10.3768C776.506 10.4056 777.195 11.0934 777.98 11.3094C788.979 14.3123 803.25 19.7025 812.092 27.0189V27.0153ZM773.311 49.4616C773.277 49.123 773.097 48.799 773.187 48.4427C774.448 43.3728 773.411 29.8923 773.029 24.1673C772.961 23.1627 773.39 19.1371 772.479 18.9571C772.046 18.8707 765.529 21.9311 764.384 22.367C756.499 25.3805 748.432 28.2215 740.914 31.9913C740.061 32.4199 738.449 33.7628 738.218 34.6883C738.161 38.8901 737.079 42.9948 737.062 47.1753C737.051 49.4112 737.169 53.6815 737.444 55.7807C737.674 57.5377 737.954 57.8906 739.696 57.7575C747.416 57.1776 758.167 53.8652 765.811 51.8345C768.294 51.1755 771.122 51.3374 773.311 49.4616ZM771.37 65.4914C777.159 60.4182 785.303 63.7093 788.027 70.3055C788.556 71.5911 788.676 73.8919 789.565 74.882C790.502 75.9298 792.189 75.7353 792.985 76.4986C793.618 77.1072 793.81 78.6987 794.307 79.4944C795.417 81.2766 801.989 88.2906 801.84 82.7817C801.731 78.7742 801.238 74.5758 801.17 70.5541C801.134 68.5161 802.138 60.0007 800.752 59.0285C800.282 58.7008 790.833 58.6575 789.339 58.6432C780.15 58.5675 767.125 57.8906 758.513 58.924C757.53 59.0428 752.594 60.015 752.033 60.3572C751.354 60.771 751.301 61.5416 751.275 62.2797C750.904 72.6136 751.331 84.3013 751.813 94.6313C751.883 96.194 751.269 101.595 752.515 102.2C753.076 102.473 757.933 102.348 758.236 101.984C758.398 101.789 758.191 100.418 758.357 99.7694C758.487 99.2653 759.607 97.6666 759.989 97.0833C762.724 92.8995 766.967 88.8271 770.124 84.8918C768.936 82.9005 767.545 79.7285 767.602 77.3844C767.701 73.5173 768.323 68.1632 771.37 65.4951V65.4914ZM790.585 82.6844C790.361 82.5585 789.627 82.5513 789.576 82.598C789 83.1561 791.063 89.1836 791.622 90.0514C793.079 92.3234 796.628 91.6969 795.046 88.8199C794.691 88.179 790.916 82.8717 790.585 82.6844ZM792.475 120.7C794.069 121.33 795.351 120.689 796.957 120.693C798.448 120.696 800.272 121.856 801.392 120.12L801.436 107.579C801.69 105.718 801.782 102.592 801.449 100.763C801.381 100.378 801.296 100.011 800.867 99.8882C799.775 99.5714 792.827 104.227 792.823 104.717C793.205 105.394 795.427 105.689 795.636 106.031C796.72 107.813 791.978 120.131 792.475 120.7ZM742.265 184.006H764.032C764.669 173.953 764.381 163.727 764.377 153.606C764.371 141.537 763.927 129.291 764.014 117.319C764.027 115.389 764.849 107.324 763.948 106.42C763.692 106.164 763.125 106.06 762.754 106.009C760.262 105.66 755.405 105.725 752.698 105.732C749.543 105.739 746.198 106.225 742.984 105.977L742.243 106.315C741.962 113.171 742.081 120.131 742.071 127.03C742.045 144.003 741.495 161.21 741.689 178.115C741.702 179.358 740.533 183.527 742.265 184.01V184.006ZM735.178 106.42C731.744 106.719 727.838 107.738 724.269 108.13C719.333 108.67 714.16 108.677 709.209 109.257C708.074 109.39 705.094 109.7 704.734 110.899C704.32 112.271 704.696 116.163 704.565 118.01C703.849 128.189 703.913 138.354 703.808 148.525C703.712 158.211 702.718 170.072 703.567 179.527C703.682 180.819 703.853 181.702 705.178 182.234C713.183 183.153 721.245 183.325 729.306 183.65C730.545 183.7 735.844 184.758 736.277 183.415C736.586 178.288 736.266 173.129 736.418 168.008C736.853 152.947 737.408 137.767 737.329 122.691C737.307 118.932 737.523 111.385 736.859 108.127C736.569 106.701 736.789 106.279 735.183 106.416L735.178 106.42Z" fill="white"/>
<path d="M373.576 168.954L373.401 113.243C373.168 112.78 372.804 112.789 372.358 112.739C366.24 112.05 358.812 113.293 352.554 112.77C350.832 112.625 350.689 112.483 350.548 110.764C350.331 108.195 350.137 99.3952 350.566 97.1693C350.606 96.9683 352.455 93.7898 352.592 93.6352C352.993 93.1716 354.203 92.7635 354.273 92.4665C354.491 91.5699 354.384 87.6311 353.68 87.0189C352.699 86.1655 333.345 87.3683 330.484 86.6571C329.695 86.3016 328.214 82.9655 327.741 81.9855C325.544 77.4312 323.775 72.0207 321.375 67.658C320.006 65.1693 318.792 64.3437 319.089 68.0941C319.507 73.3841 324.588 86.2799 328.833 89.5388C330.098 90.5094 331.777 91.1123 333.381 91.1031C335.258 91.0908 337.971 89.347 338.886 91.2269C341.169 95.9046 339.586 100.323 339.168 104.914C338.84 108.516 339.966 108.714 341.131 111.521C343.942 118.289 343.078 125.518 340.512 132.199C339.307 135.337 337.103 138.37 336.967 141.777C330.727 141.305 324.2 144.99 320.123 149.491C314.933 155.221 312.44 160.736 310.392 168.172C309.436 171.638 308.7 172.698 312.698 174.158C318.511 173.592 328.784 169.152 334.191 171.57C336.679 172.683 336.787 174.841 337.888 176.749C338.172 177.24 339.484 177.608 339.128 178.829C338.733 179.219 332.28 176.019 332.99 178.628C333.287 179.72 336.813 180.128 338.052 180.987C340.806 182.905 341.687 186.593 338.98 188.983C336.651 187.168 335.452 185.421 332.171 185.607C329.846 185.74 329.031 187.363 328.15 187.483C327.03 187.635 325.315 186.531 324.82 186.611C324.134 186.726 322.35 188.714 321.209 189.171C316.452 191.079 307.619 187.134 305.093 182.74C304.647 181.965 303.702 179.021 303.54 178.888C303.344 178.724 302.631 178.882 302.181 178.554C300.97 177.67 302.898 173.75 303.199 172.411C303.979 168.92 304.515 165.686 303.77 162.125C303.587 161.253 302.985 161.132 302.973 161.027C302.369 155.789 308.561 147.63 311.072 143.225C311.356 142.727 311.597 141.564 311.665 141.502C311.855 141.335 315.339 141.351 316.648 140.831C316.921 140.723 316.921 140.201 317.467 140.055C319.731 139.459 320.46 140.717 320.87 137.267C321.224 134.255 320.622 131.281 319.509 128.505C318.173 125.175 315.196 122.537 315.345 118.781C315.454 116.038 316.751 113.834 315.716 110.989C315.558 110.557 313.66 106.745 313.459 106.599C311.74 105.353 305.121 113.225 304.673 114.904C303.807 118.147 306.467 120.676 308.707 122.627C309.462 123.282 313.173 125.703 313.335 126.028C313.591 126.557 313.673 128.347 313.199 128.675C311.725 129.698 304.41 126.764 302.768 125.784C301.206 124.85 298.482 122.374 298.109 120.558C297.096 115.639 301.157 109.15 304.37 105.65C306.556 103.266 309.4 102.394 309.406 98.7027C309.413 95.4532 305.466 98.7368 304.837 98.2421C305.773 95.6759 308.692 94.9926 307.928 91.7585C306.264 91.4835 304.899 92.5687 303.295 92.6831C304.624 91.4031 307.045 88.0608 305.925 86.1965C305.596 85.6493 298.747 83.7045 297.411 82.9749C296.507 82.4802 296.108 82.2916 296.198 81.1475C296.232 80.6869 297.751 76.1141 298.017 75.5266C298.147 75.2392 298.186 74.9175 298.544 74.797C299.033 74.6487 301.358 75.9411 301.957 76.2718C303.022 76.8593 304.639 78.5689 305.765 78.0279C307.348 77.2704 304.833 75.1309 304.075 74.4631C298.1 69.1823 289.63 71.056 284.442 76.4697C279.303 81.834 281.788 85.4545 279.866 91.3504C279.124 93.6292 278.539 92.6336 277.791 91.1556C273.524 82.7336 275.152 70.218 277.185 61.187C278.938 53.408 281.3 48.4117 286.453 42.3518C290.829 37.2102 293.318 36.6445 298.576 33.1599C301.29 31.3606 303.805 28.9026 306.531 27.2175C307.811 26.426 309.118 25.4861 310.71 25.684C310.355 26.5869 310.306 27.5484 309.935 28.4574C308.931 30.9154 306.539 31.9511 306.691 34.7801C306.887 38.4345 312.045 41.9065 313.205 45.4282C316.166 44.7882 316.565 44.2873 315.1 41.5202C314.191 39.8103 313.487 39.8506 312.135 38.9107C311.326 38.3449 311.975 37.0432 313.001 37.1021C313.926 37.1545 321.181 42.0983 318.863 37.7574C317.295 34.8264 314.005 33.2774 315.656 29.0788C317.546 29.9413 318.579 31.4193 320.915 30.7823C324.323 29.8549 321.96 25.1398 322.18 22.4746C322.303 20.9845 323.195 15.9696 325.232 16.5725C323.59 21.5132 329.046 23.5445 333.071 23.1797C337.127 22.8087 336.933 20.0879 332.788 19.8096C331.559 19.7261 328.814 20.7279 330.021 18.2699C330.876 16.523 336.856 18.5605 338.323 19.2345C346.201 22.8612 345.941 29.7002 351.346 34.0102C353.428 35.6736 356.022 35.8127 355.841 39.1208C355.738 40.9636 353.287 44.887 351.602 45.7032C348.914 47.005 344.763 46.1052 341.768 46.3712C337.523 46.7513 333.989 49.4969 331.241 52.5517C331.043 52.9474 334.11 59.5328 334.511 60.714C335.192 62.7021 337.4 69.6337 336.369 71.2384C336.101 71.6559 335.962 71.7361 335.578 71.3869C332.754 68.8175 332.097 62.8535 331.098 59.338C329.127 60.714 329.021 62.7422 329.328 64.9683C329.633 67.1944 332.728 76.1173 334.477 77.4221C335.832 78.4298 336.824 77.5797 338.052 77.6168C342.611 77.7621 344.226 79.3975 348.343 80.2355C351.009 80.7797 355.13 81.4598 357.761 80.8879C359.606 80.486 359.614 78.4484 359.887 78.2259C360.075 78.0712 360.698 78.2754 361.216 77.8611C361.737 77.4466 362.729 75.2237 363.426 75.1061L365.696 76.9365C366.295 75.5513 365.536 73.0223 367.554 73.5417L373.813 28.3831C374.152 27.5669 374.916 27.3135 375.735 27.2175C379.284 26.8064 383.139 27.7369 386.71 27.536L377.138 95.005V176.675H374.043V171.888C374.043 171.854 373.614 171.425 373.58 171.425H342.837V176.675H339.748V170.036C339.748 169.959 340.753 168.954 340.832 168.954H373.58H373.576ZM340.055 30.934C340.158 32.8631 341.749 34.8574 343.744 33.537C346.559 31.6759 341.465 30.9832 340.055 30.934ZM383 31.2399H377.439L370.809 76.3368C366.317 82.7676 360.856 88.438 355.954 94.5504C355.578 95.379 356.242 96.4983 357.183 96.4085L373.437 96.2541L373.67 95.8675L383 31.2399ZM354.267 110.288C354.569 110.189 354.938 110.597 355.041 110.597H373.267C373.301 110.597 373.732 110.167 373.732 110.133V99.018C373.732 98.9841 373.301 98.5542 373.267 98.5542H354.732C354.697 98.5542 354.267 98.9841 354.267 99.018V110.288Z" fill="white"/>
<path d="M23.0115 109.43C22.2151 105.656 14.9496 108.919 13.8594 106.665C12.1005 103.037 18.0542 98.7435 16.3039 94.4376C15.8014 93.2069 13.5016 91.6735 13.6251 90.315C13.8253 88.1682 17.9861 88.5048 17.309 85.8002C17.0577 84.7994 14.9922 84.5097 13.8636 83.692C10.5376 81.2856 2.12651 73.6703 0.670015 70.0799C0.124895 68.7339 -0.343568 67.3285 0.342091 65.9231C0.704086 65.1777 1.55158 65.0286 1.90079 64.5048C8.60832 54.4703 17.3388 46.0415 24.9492 36.9227C26.3929 35.1937 29.8041 29.5461 31.5033 29.0136C33.2026 28.4811 35.281 29.5248 36.3966 27.9531C37.9852 25.7087 35.3277 23.8729 35.7665 21.3899C36.0263 19.912 38.4197 20.2186 38.3898 17.5481C38.3685 15.5123 35.4087 11.76 37.9342 10.3375C38.9009 9.79232 41.3325 9.95417 41.6817 8.53589C42.1672 6.5767 37.8275 3.52719 40.2169 1.55522C42.163 -0.0504596 44.5352 4.60049 45.7531 5.44377C46.3749 5.87394 47.0903 5.79302 47.6612 6.10393C48.2745 6.4404 48.9003 7.41147 49.6158 7.41147C50.4718 7.41147 52.1754 5.15842 53.947 5.1073C55.4971 5.06472 57.5499 6.98558 58.7466 7.35611C62.8179 8.62107 64.002 3.46329 67.4983 3.36109C72.1829 3.22479 65.6544 9.98824 65.5733 10.7506C65.3988 12.3733 67.0002 13.5446 67.2173 14.669C67.4558 15.8999 66.4976 16.9348 67.0426 18.6299C67.5196 20.1121 69.5297 20.3677 69.862 23.0891C70.1176 25.1805 67.9838 24.9505 67.1789 26.799C65.7352 30.1253 68.7163 29.8655 70.0365 31.3774C71.3567 32.8895 72.2853 35.858 73.2988 37.4766C76.8931 43.2221 81.0413 48.827 84.6485 54.6322C85.811 56.5018 89.8226 62.6776 89.8866 64.3258C89.9293 65.4928 89.1669 67.452 88.5792 68.4954C88.4856 68.6574 86.6543 71.2001 86.4414 71.4557C84.4695 73.8023 81.2072 75.9361 79.278 78.466C78.7287 80.3103 81.0709 81.7754 81.3478 83.8836C81.4927 84.9953 81.514 92.0312 81.2584 92.7638C80.973 93.5986 78.3539 94.3269 78.3753 96.2392C78.3838 96.8995 78.9843 97.4318 79.1078 98.0366C79.3759 99.3569 79.8403 100.763 80.0319 101.789C81.0965 107.598 76.7654 104.655 73.7034 106.482C70.2622 108.54 70.1984 115.767 69.2955 119.511C66.7361 130.091 63.8231 140.674 61.3742 151.152C59.8838 157.536 59.2235 164.214 56.7194 170.331C56.6002 171.566 61.9536 174.134 63.2311 175.156C66.1823 177.512 69.1636 181.421 68.9889 185.352H39.8335C37.9384 185.025 33.6839 181.792 32.1889 181.937C30.0214 182.145 30.4686 185.352 30.2599 185.352H23.0243V109.425L23.0115 109.43ZM47.5545 34.4993C42.2014 30.5341 39.629 29.3927 40.5063 37.9237C41.8991 51.4377 48.9387 72.1882 58.3506 82.1885C60.1732 84.1221 60.9356 84.2243 62.7797 81.9627C64.709 79.5947 69.4446 67.0305 69.7767 63.8616C70.5562 56.4338 69.5171 44.9044 67.6007 37.6425C66.3613 32.9447 62.5071 38.6264 61.4424 38.9458C60.5907 39.1971 54.441 39.2142 53.4529 39.0226C53.1677 38.9671 49.1644 36.2584 48.5639 35.8153C48.0358 35.4237 47.8527 34.7209 47.5545 34.4993ZM19.4809 63.359C16.5977 64.245 17.9606 72.2008 21.8913 70.8805C22.9093 70.5398 22.7943 65.4205 22.5046 64.428C22.1426 63.1971 20.5286 63.0397 19.4809 63.359Z" fill="white"/>
<path d="M641.368 109.159C640.633 106.799 635.502 111.374 633.798 110.182C633.307 109.759 633.777 100.496 634.276 99.536C635.481 97.219 641.699 96.0649 641.415 92.2682C641.351 91.3931 639.683 90.9323 638.986 90.2179C637.923 89.1354 631.714 82.2356 631.46 81.4831C629.811 76.6125 632.674 75.1371 634.355 71.7464C635.758 68.9137 639.935 59.0629 640.136 56.3823C640.355 53.4313 640.244 51.1017 642.079 48.2607C643.627 45.8635 645.985 45.7959 647.977 42.6925C648.434 41.9781 650.07 41.3692 648.589 39.4456C647.555 38.1012 644.967 38.5451 643.453 35.2896C639.395 26.5846 641.083 18.2895 647.904 11.8124C649.709 10.1001 655.917 10.2016 658.385 10.6582C660.853 11.1148 663.762 13.5036 666.324 14.1843C666.527 14.9157 665.851 16.759 665.428 17.389C665.042 17.9597 664.383 18.0189 663.995 18.5981C662.57 20.7332 664.744 22.3017 665.631 24.1027C666.393 25.6459 665.588 26.5549 667.583 28.06C668.758 28.9479 671.034 28.9818 670.458 30.9562C670.136 32.0681 667.583 32.1822 666.915 35.0403C666.045 38.7523 668.323 43.6862 661.614 42.05C659.671 41.5764 658.026 39.3103 656.93 42.7898C655.705 46.6752 656.842 47.0473 658.634 49.6728C658.984 50.1886 658.984 50.9792 659.357 51.4823C662.333 55.5198 668.253 57.1898 670.113 63.1089C671.527 67.603 669.855 68.7192 668.754 72.3382C667.948 74.9891 666.324 78.3544 668.227 80.6164C669.434 82.0495 673.726 85.0556 674.505 86.1675C675.126 87.0554 676.655 92.6996 676.009 93.3127C671.066 93.6636 669.579 94.9108 669.671 99.8827C669.757 104.457 673.98 116.9 676.512 120.895C677.577 122.573 681.775 125.82 679.827 127.74C678.799 128.755 673.705 128.907 672.848 130.475C672.504 131.101 672.446 139.388 672.715 140.305C673.05 141.43 676.039 143.273 676.758 144.71C677.523 146.237 678.251 150.088 678.761 151.999C679.341 154.172 680.228 154.832 679.831 157.732C679.703 158.667 675.725 164.755 674.893 165.025C672.124 165.913 665.428 164.078 665.437 160.675C665.437 159.888 665.872 159.056 665.889 158.147C665.932 155.517 665.445 151.183 665.889 148.858C666.26 146.884 667.626 143.561 668.585 141.84C670.096 139.134 669.106 133.875 668.366 130.936C656.296 128.776 660.443 144.275 659.496 151.336C658.786 156.646 656.36 162.472 655.277 167.807C654.859 169.875 653.865 170.175 654.788 173.003C656.085 176.99 660.232 177.282 662.884 179.269C663.521 179.747 663.707 180.681 664.637 181.315C667.242 183.087 667.732 181.801 669.946 181.277C670.382 181.176 671.043 181.615 671.794 181.395C672.965 181.053 673.131 179.603 674.851 179.933C676.63 180.275 677.312 182.169 676.86 183.793C676.775 184.097 672.03 186.545 671.354 186.828C668.861 187.873 662.709 189.809 660.253 189.073C658.553 188.566 658.263 185.919 654.767 186.718C652.175 187.31 653.562 190.646 650.454 190.469C648.158 190.337 647.828 185.708 646.294 183.814C646.006 183.459 645.2 183.306 644.946 182.846C644.133 181.379 645.635 181.467 645.897 181.019C647.301 178.597 648.792 167.824 648.51 164.924C647.604 155.716 646.78 150.448 648.67 140.927C649.063 138.948 650.801 135.946 650.023 134.272C649.92 134.052 648.852 132.999 648.762 132.999H639.89C638.444 132.999 638.745 127.148 638.841 126.04C639.09 123.22 641.368 118.747 641.368 116.743C641.368 115.145 641.699 110.194 641.368 109.142V109.159ZM646.729 71.9239C643.922 70.5583 641.403 72.2157 641.763 75.395C642.032 77.7669 644.295 79.2169 645.067 80.9716C645.631 82.2484 646.221 87.25 648.98 84.6836C653.713 80.2825 648.297 76.4476 646.725 71.9239H646.729Z" fill="white"/>
<path d="M480.321 180.682C481.868 177.506 477.983 171.419 477.331 167.865C476.066 163.392 475.554 158.289 474.419 153.674C473.753 150.8 472.847 147.614 473.883 144.774C475.59 139.967 481.155 140.796 485.164 142.785C488.218 144.027 491.621 146.532 495.027 145.966C497.794 144.818 494.01 139.89 492.749 136.945C491.644 134.704 490.819 132.336 490.119 129.951C489.402 127.507 488.824 124.99 488.459 122.518C488.007 120.249 488.124 117.189 486.729 115.678C485.865 114.755 483.946 116.184 482.898 116.931C481.62 117.826 480.131 118.722 478.973 118.733C474.229 118.337 477.461 109.338 478.568 106.531C479.709 103.553 480.656 100.416 482.399 97.7792C485.317 93.5763 489.379 89.7856 492.09 85.583C495.998 79.4023 500.283 72.1285 499.023 64.6458C498.417 60.1957 495.452 55.8611 493.509 51.8065C492.284 49.1915 491.461 45.2139 494.867 45.9446C496.439 46.4391 498.246 47.8949 499.742 48.7629C502.161 50.3121 505.043 50.0651 507.803 49.664C511.169 49.164 514.842 48.6311 518.185 47.4938C521.685 46.2302 527.948 43.8185 524.97 50.2682C523.61 53.0206 521.267 55.6139 519.891 58.4156C516.707 64.7281 517.579 72.9634 521.316 78.8034C522.946 81.2538 525.058 83.3415 526.935 85.6269C529.883 89.033 531.844 93.2083 533.533 97.2738C536.705 104.493 539.201 111.882 542.548 119.04C544.555 123.809 548.35 128.237 549.293 133.303C549.704 137.505 544.926 135.874 545.639 141.077C545.773 143.126 546.208 145.169 546.238 147.614C546.008 153.921 544.585 160.3 543.09 166.546C542.3 169.826 540.837 173.023 539.73 176.127C537.481 181.715 542.831 182.758 547.693 183.583C550.805 184.115 553.553 184.456 555.824 185.538C559.639 187.423 555.178 189.214 552.87 189.45C549.992 189.895 546.468 189.549 543.343 189.285C537.053 188.774 530.689 187.73 531.167 180.923C532.044 173.248 534.952 165.947 536.711 158.371C537.228 156.124 537.9 153.498 537.693 151.284C537.117 147.4 531.98 150.542 529.491 151.647C526.129 153.256 522.829 155.36 519.145 156.179C515.836 156.921 512.948 155.146 509.757 154.723C505.273 153.839 500.812 155.959 496.299 155.185C488.553 153.668 481.062 147.85 483.557 160.3C484.193 163.491 484.728 166.766 485.518 169.903C486.064 172.089 486.552 174.281 486.97 176.347C487.499 179.143 488.141 182.028 486.883 184.676C484.775 189.351 477.055 188.9 472.164 188.813C468.634 188.659 464.86 189.192 461.571 187.807C457.381 185.725 459.948 183.385 463.201 182.94C467.292 181.912 477.866 183.835 480.262 180.726L480.298 180.676L480.321 180.682ZM510.623 59.6188C509.14 58.0807 506.514 59.5309 505.921 61.212C504.925 63.3986 506.668 67.0466 508.451 67.6563C509.439 68.041 510.215 67.2664 510.61 66.4423C511.5 64.5468 511.994 61.3769 510.687 59.6847L510.629 59.6133L510.623 59.6188ZM496.964 95.2521C500.354 95.6312 505.092 87.187 506.079 84.4073C506.909 82.6492 509.051 75.6224 505.832 76.7872C502.984 78.5453 501.231 82.1491 499.641 85.1049C498.681 87.2915 495.081 93.8127 496.922 95.2301L496.964 95.2465V95.2521ZM511.805 77.5783C508.857 77.2706 511.952 85.1872 512.607 86.7311C513.842 89.824 517.007 94.9444 519.467 96.0542C524.335 97.8067 516.736 82.6161 515.689 81.4404C514.384 79.3747 512.895 77.8255 511.864 77.5947L511.805 77.5838V77.5783ZM531.438 111.541C528.049 110.256 527.982 117.892 527.5 119.87C527.229 121.518 526.841 123.161 526.393 124.787C525.128 129.171 523.622 133.775 521.675 137.912C520.115 141.461 517.125 144.961 516.043 148.576C514.825 153.806 522.916 146.828 524.488 145.944C527.56 143.856 530.391 141.807 533.574 140.247C537.164 138.511 541.66 136.775 541.059 132.709C540.372 128.479 538.505 124.562 537.087 120.431C535.758 117.376 534.467 113.459 531.492 111.563L531.432 111.536L531.438 111.541ZM497.999 129.353C496.84 129.737 497.416 131.259 498.31 133.418C499.535 136.121 501.248 138.687 503.289 140.906C505.461 143.301 507.809 144.455 510.386 142.911C513.724 141.005 517.202 135.017 516.726 131.594C516.431 130.825 515.525 131.16 515.047 131.594C512.918 133.187 510.606 139.95 506.655 136.934C505.213 135.918 503.878 134.44 502.683 133.033C501.442 131.638 499.695 129.292 498.039 129.341H497.999V129.353Z" fill="white"/>
<path d="M460.534 46.9275C460.583 46.8931 460.792 45.9705 460.779 45.7751C460.703 44.7084 456.75 42.6199 455.741 41.2754C455.133 40.466 453.017 36.1034 454.005 35.4346C454.679 34.9785 456.835 35.5754 457.763 34.9066C458.072 34.4539 456.475 29.8066 456.242 28.7846C455.402 25.1218 454.28 20.5226 453.761 16.8769C453.58 15.5977 453.889 11.0088 453.008 10.4155C452.417 10.2783 451.406 10.4703 451.176 11.0431C449.832 16.822 448.885 22.6798 447.757 28.5C447.439 30.1497 445.615 33.9907 447.513 35.1329C448.044 35.4553 449.156 34.3954 449.945 35.4209C451.667 37.6503 446.43 43.5184 444.277 44.5507C443.535 44.9038 442.119 44.386 442.084 45.7819C442.033 47.8568 446.978 46.1318 448.027 47.2737C448.906 48.2273 450.419 56.8389 449.568 57.5455C448.473 58.4509 446.801 53.598 446.052 52.84C445.498 52.2777 443.07 51.7529 442.055 51.1835C440.448 50.2883 436.79 47.5961 435.203 46.3854C434.81 46.0872 434.424 45.7716 434.173 45.3326C434.077 44.7737 435.956 43.4429 436.135 42.5614C436.365 41.4331 435.627 39.636 436.289 37.592C436.461 37.0604 437.136 36.7449 437.191 36.4294C437.4 35.2838 432.856 31.5833 435.841 30.6367C438.145 29.906 440.126 31.2539 438.213 26.9292C435.685 21.2154 429.514 17.2439 423.537 15.9132C421.169 15.385 419.057 15.7588 416.883 14.3424C416.098 13.8314 416.309 12.7613 414.791 13.0014C413.47 13.2106 413.677 15.0386 413.336 16.0263C411.29 21.9494 409.677 27.2345 413.639 32.9996C415.181 35.2426 417.85 36.2269 418.566 39.0393C419.006 40.7677 419.006 43.0175 418.364 44.6879C417.12 47.922 413.093 48.3918 410.271 49.9557C401.375 54.8808 402.019 63.6468 403.801 72.6395C405.251 79.9754 409.592 87.0335 411.369 93.8448C412.094 96.6331 410.8 97.6654 410.241 99.9325C409.294 103.767 408.792 107.766 406.883 111.305L403.643 127.575C404.345 129.729 405.292 128.752 406.523 128.824C406.981 128.851 407.444 129.112 407.956 129.139C411.99 129.362 416.683 127.709 416.333 133.413C416.269 134.445 415.791 138.29 415.569 139.167C415.373 139.946 414.626 140.454 414.428 141.105C413.528 144.031 415.71 145.279 415.983 147.8C416.337 151.024 415.416 154.385 415.687 157.688C416.416 166.646 421.254 174.88 420.004 184.014C419.791 185.57 418.374 188.492 419.375 189.892C420.147 190.969 427.935 190.242 429.612 190.183C431.289 190.125 435.391 191.274 434.437 187.947C433.865 185.955 427.888 186.267 426.596 185.149C424.962 183.736 425.704 180.306 425.593 178.272C425.109 169.39 426.359 162.942 427.592 154.265C427.85 152.464 427.6 150.417 428.01 148.52C428.624 145.684 430.676 141.784 430.683 138.859C430.683 137.429 429.39 134.417 430.459 133.33C431.461 132.312 432.801 133.296 433.055 134.52C433.151 136.266 432.912 138.852 433.185 140.519C433.46 142.162 435.278 145.128 435.412 146.473C435.604 148.41 434.26 153.486 434.149 156.024C433.776 164.554 438.309 171.708 438.789 179.809C438.934 182.22 437.477 186.888 438.919 188.839C439.798 190.019 446.56 189.148 448.384 189.398C449.427 189.542 450.082 190.2 451.451 190.248C452.757 190.297 454.478 189.587 454.674 188.194C454.9 186.579 454.386 185.516 454.352 184.12C453.708 157.231 454.595 130.336 454.16 103.578C454.075 98.2416 453.377 90.4255 454.005 85.4423C454.301 83.0964 457.243 85.2364 458.028 82.6197C458.282 81.7725 458.659 77.1803 458.333 76.7171C457.812 75.9833 454.506 75.9077 454.352 75.4757L454.365 46.9239C455.289 46.9239 460.278 47.0954 460.534 46.9239V46.9275ZM415.731 32.101C414.166 30.5817 412.37 19.3017 416.122 19.5177C417.331 19.5863 423.56 23.6402 424.356 24.6794C424.554 24.9401 425.154 25.986 425.134 26.209C425.038 27.4128 417.99 31.0653 416.996 32.3822C416.595 32.5915 416.022 32.3856 415.727 32.101H415.731ZM421.011 34.8208C419.334 35.9321 417.709 35.0574 419.75 33.051C420.614 32.2004 425.538 29.0177 426.625 28.6201C427.775 28.2015 429.172 28.2975 427.897 29.5598C426.553 30.887 423.381 32.7801 421.681 33.9668C421.354 34.1932 421.224 34.6802 421.011 34.8208ZM421.841 44.2179C422.048 44.0362 426.677 44.1356 427.312 44.338C427.946 44.5403 430.877 46.9789 431.909 47.6202C433.405 48.5497 435.553 49.1532 436.882 50.5217C436.882 51.3277 432.372 52.3496 431.574 52.3393C427.974 52.305 422.884 46.2894 421.807 52.744C423.731 52.888 429.605 53.9135 430.179 55.841C431.056 58.7905 427.758 62.1207 424.983 62.5975C422.609 63.0056 421.694 62.6489 419.795 61.4245C418.991 60.9066 417.528 59.1677 416.743 58.9825C415.785 58.7562 414.808 59.3049 413.745 59.2742C412.568 59.2398 404.575 58.3171 406.06 56.1908C406.122 56.1017 407.905 55.2511 408.011 55.2272C409.123 54.9424 411.57 55.1208 412.805 55.2477C413.353 55.3059 413.684 55.8856 414.362 55.793C414.603 55.762 418.325 53.6599 418.562 53.4438C419.821 52.2777 420.109 50.0963 420.61 48.6388C421.135 47.1127 421.979 46.1249 421.845 44.2179H421.841ZM417.013 61.9971C419.272 63.0056 421.8 63.8013 422.901 66.2122C424.3 69.2784 425.03 73.1436 426.698 76.4635C428.042 79.1385 431.485 83.1993 431.248 86.1522C431.22 86.5123 431.018 86.9994 430.713 87.1845C430.021 87.6063 423.404 86.3065 422.421 85.8745C420.213 84.9038 419.746 81.4913 419.17 79.1901C418.556 76.7515 417.788 73.483 417.397 71.0275C417.184 69.7002 416.201 62.5699 417.016 61.9937L417.013 61.9971ZM447.552 76.34C447.475 74.6354 445.832 71.1372 445.894 69.7584C445.95 68.4929 448.083 65.4096 449.154 66.8741C449.794 67.7488 449.821 75.726 448.827 76.3229C448.608 76.4532 447.703 76.4635 447.552 76.34ZM441.585 80.7334C441.197 81.0145 439.493 81.4192 438.93 81.3746C434.469 81.0077 433.405 74.8927 431.999 71.5075C431.118 69.3847 429.047 67.8962 432.912 66.7301C435.491 65.9517 439.013 67.2857 440.655 69.3642C442.496 71.6927 444.403 78.6962 441.585 80.7368V80.7334ZM439.335 84.6534C439.793 83.9024 446.577 84.9552 447.953 85.0239C449.546 85.6891 448.789 92.4558 448.857 94.3628C449.811 120.86 449.73 147.2 449.928 173.505L449.173 183.026C448.19 185.039 444.115 183.015 443.8 181.644C443.697 181.198 444.053 180.714 444.013 180.347C442.931 170.453 444.922 165.535 445.457 156.364C445.606 153.795 445.114 150.526 445.442 148.129C445.606 146.942 446.649 146.027 447.006 144.895C447.974 141.829 447.044 139.761 446.831 136.839C446.317 129.784 445.195 123.154 444.557 116.227C444.516 115.788 444.838 115.287 444.794 114.978C444.749 114.67 443.477 114.436 443.145 113.466C441.999 106.871 442.225 98.6909 439.815 92.4765C439.52 91.7219 438.697 91.2966 438.597 90.5832C438.471 89.671 439.075 88.9507 439.156 88.1482C439.232 87.4177 439.181 84.914 439.339 84.6534H439.335ZM420.845 88.4671C424.27 88.6764 427.573 89.009 429.633 92.0238C433.629 97.8713 431.862 105.608 431.732 112.162C431.647 116.501 432.304 122.537 431.762 126.581C431.649 127.435 431.314 127.997 430.493 128.337C427.705 128.066 417.568 128.755 415.791 127.435C414.437 126.43 415.034 122.452 414.949 120.744C414.599 113.685 414.091 106.565 414.626 99.4866C414.914 95.6556 415.727 88.1584 420.845 88.4671Z" fill="white"/>
<path d="M567.621 170.023H572.073V106.903C572.527 107.49 575.714 108.321 575.714 108.52V170.019H580.166V110.541C580.836 110.501 583.809 112.077 583.809 112.36V170.015H588.261V120.248C589.456 120.714 591.056 120.325 591.903 121.261V170.015H596.355V120.046C596.355 119.43 599.39 118.822 599.996 119.033V170.015H604.45V117.822C604.45 117.635 607.588 117.343 608.091 117.011V170.015H612.543V116.201C612.543 116.019 615.662 115.622 616.184 115.796V172.847H563.98V102.848C564.615 103.184 567.621 104.501 567.621 105.072V170.011V170.023Z" fill="white"/>
<path d="M617.012 68.0649H561.955L580.375 46.6289C582.549 50.6519 585.751 53.881 590.802 52.5926C592.816 52.0781 596.651 48.6871 598.786 47.9983C599.219 47.8564 599.58 47.735 599.994 48.0267L611.956 60.3753L617.012 68.0689V68.0649Z" fill="white"/>
<path d="M612.56 72.9189L616.566 72.9635L619.687 109.349C616.645 110.236 613.505 111.881 610.54 112.776C607.21 113.785 595.032 116.888 592.297 116.034C591.026 115.637 589.368 113.518 587.461 113.578C587.493 111.455 598.321 107.234 600.431 106.31C604.512 104.532 609.145 103.644 612.564 100.634V72.9189H612.56Z" fill="white"/>
<path d="M603.644 25.5799C605.295 26.7669 601.252 42.2878 600.811 44.9982C599.738 45.1804 599.701 43.9164 598.948 43.4261C594.285 40.3957 590.083 46.0717 589.682 50.2568C587.843 48.9037 587.92 45.4357 586.519 43.9082C585.303 42.5834 579.831 41.7408 579.43 41.287C578.886 40.6754 576.444 25.831 576.934 25.1748C578.551 25.5313 579.872 27.5731 581.009 28.1809C583.372 29.4408 596.323 28.659 599.369 27.9782C601.378 27.5285 601.937 26.2037 603.648 25.584L603.644 25.5799Z" fill="white"/>
<path d="M582.197 177.713V183.377H586.651L586.248 177.713H594.345C593.724 184.45 601.122 182.842 604.574 186.192C605.521 187.116 606.53 189.66 604.469 189.045C604.273 189.827 605.367 189.045 605.275 189.843C604.537 190.061 603.853 190.22 603.068 190.272C593.972 190.872 584.027 189.932 574.889 190.078C574.276 186.079 573.417 181.898 573.7 177.713H582.203H582.197Z" fill="white"/>
<path d="M563.98 72.9198C564.971 73.0373 567.196 72.4579 567.563 73.5843L567.706 90.6405C569.08 91.3049 570.328 92.2124 571.659 92.958C577.591 96.2679 587.041 97.7426 587.464 105.89C587.41 106.988 581.531 103.633 581.998 106.498C575.586 103.722 569.005 100.834 563.98 95.7776V72.9157V72.9198Z" fill="white"/>
<path d="M591.841 106.436C591.664 106.724 588.803 107.436 588.268 108.121V72.9189C589.439 73.1092 591.709 72.4936 591.907 73.9276L591.839 106.436H591.841Z" fill="white"/>
<path d="M596.359 72.9216C597.607 73.0675 599.751 72.2897 600.007 73.9345L600.034 101.464C599.932 102.29 597.174 103.214 596.359 104.077V72.9216Z" fill="white"/>
<path d="M604.458 99.6243V72.9216C605.706 73.0675 607.85 72.2897 608.104 73.9345L608.125 97.4245C608.23 99.1463 605.76 99.1706 604.458 99.6284V99.6243Z" fill="white"/>
<path d="M583.812 94.7693C583.466 95.1379 580.17 92.861 580.17 92.5451V73.3254C580.78 72.9649 583.812 72.7663 583.812 73.5279V94.7693Z" fill="white"/>
<path d="M575.72 90.3158C575.59 90.4615 572.079 89.2988 572.079 88.8978V72.915C572.642 72.9313 575.72 72.8583 575.72 73.5228V90.3158Z" fill="white"/>
</svg>
