<svg width="345" height="489" viewBox="0 0 345 489" fill="none" xmlns="http://www.w3.org/2000/svg">
<rect width="344.885" height="488.284" rx="30.8581" fill="#D9D9D9"/>
<path d="M125.912 244.374C140.517 243.398 160.92 232.944 161.349 232.735C160.347 232.944 147.532 237.753 136.865 237.962C123.406 238.241 115.102 230.156 117.608 216.704C120.4 201.58 135.648 188.338 135.648 188.338C135.648 188.338 116.82 198.514 109.876 215.241C108.086 219.353 99.4237 246.047 125.912 244.374Z" fill="#9D9D9D"/>
<path d="M215.328 244.374C241.817 246.116 233.154 219.423 231.436 215.171C224.492 198.513 205.664 188.268 205.664 188.268C205.664 188.268 220.913 201.441 223.705 216.635C226.21 230.156 217.906 238.241 204.447 237.892C193.78 237.613 180.965 232.804 179.963 232.665C180.321 232.874 200.724 243.398 215.328 244.374Z" fill="#9D9D9D"/>
<path d="M175.505 250.373L170.494 181.931L165.482 250.373H120.166L110 259.295H164.838L163.764 274.419H177.295L176.221 259.295H210.012L195.192 285.71L231.059 250.095L175.505 250.373Z" fill="#9D9D9D"/>
<path d="M170.656 177.883C176.097 177.883 180.535 173.562 180.535 168.265C180.535 162.968 176.097 158.647 170.656 158.647C165.215 158.647 160.776 162.968 160.776 168.265C160.776 173.562 165.215 177.883 170.656 177.883Z" fill="#9D9D9D"/>
<path d="M147.533 185.829C152.974 185.829 157.412 181.507 157.412 176.21C157.412 170.913 152.974 166.592 147.533 166.592C142.092 166.592 137.653 170.913 137.653 176.21C137.653 181.507 142.092 185.829 147.533 185.829Z" fill="#9D9D9D"/>
<path d="M193.709 185.829C188.268 185.829 183.829 181.507 183.829 176.21C183.829 170.913 188.268 166.592 193.709 166.592C199.149 166.592 203.588 170.913 203.588 176.21C203.588 181.507 199.149 185.829 193.709 185.829Z" fill="#9D9D9D"/>
<path d="M131.755 323.461L131.394 333.993H126.327V327.779H124.174V323.461H131.755ZM97.5265 301.377H102.98V323.293H110.56V301.377H115.988V323.293H123.478V301.377H128.905V327.779H97.5265V301.377ZM133.333 327.779V301.377H151.124V305.979H138.915V312.27H150.209V316.873H138.915V323.177H151.176V327.779H133.333ZM138.335 298.669C137.596 298.669 136.96 298.411 136.427 297.896C135.894 297.372 135.628 296.753 135.628 296.039C135.628 295.309 135.894 294.69 136.427 294.183C136.96 293.676 137.596 293.422 138.335 293.422C139.083 293.422 139.715 293.676 140.23 294.183C140.755 294.69 141.017 295.309 141.017 296.039C141.017 296.753 140.755 297.372 140.23 297.896C139.715 298.411 139.083 298.669 138.335 298.669ZM146.225 298.669C145.486 298.669 144.85 298.411 144.317 297.896C143.784 297.372 143.518 296.753 143.518 296.039C143.518 295.309 143.784 294.69 144.317 294.183C144.85 293.676 145.486 293.422 146.225 293.422C146.973 293.422 147.604 293.676 148.12 294.183C148.644 294.69 148.907 295.309 148.907 296.039C148.907 296.753 148.644 297.372 148.12 297.896C147.604 298.411 146.973 298.669 146.225 298.669ZM152.316 327.779V323.293L153.064 323.228C154.026 323.151 154.804 322.786 155.397 322.133C155.99 321.471 156.433 320.418 156.725 318.974C157.026 317.522 157.219 315.571 157.305 313.121L157.743 301.377H175.663V327.779H170.236V305.85H162.926L162.513 315.042C162.376 317.999 162.023 320.414 161.456 322.287C160.898 324.161 160.004 325.545 158.775 326.439C157.554 327.332 155.883 327.779 153.76 327.779H152.316ZM202.713 314.578C202.713 317.457 202.167 319.907 201.076 321.926C199.993 323.946 198.514 325.489 196.641 326.555C194.776 327.612 192.679 328.14 190.35 328.14C188.003 328.14 185.898 327.607 184.033 326.542C182.168 325.476 180.694 323.933 179.611 321.913C178.528 319.894 177.986 317.449 177.986 314.578C177.986 311.699 178.528 309.249 179.611 307.23C180.694 305.21 182.168 303.671 184.033 302.614C185.898 301.549 188.003 301.016 190.35 301.016C192.679 301.016 194.776 301.549 196.641 302.614C198.514 303.671 199.993 305.21 201.076 307.23C202.167 309.249 202.713 311.699 202.713 314.578ZM197.053 314.578C197.053 312.713 196.774 311.14 196.215 309.86C195.665 308.579 194.888 307.608 193.882 306.946C192.876 306.284 191.699 305.953 190.35 305.953C189 305.953 187.823 306.284 186.817 306.946C185.812 307.608 185.03 308.579 184.471 309.86C183.921 311.14 183.646 312.713 183.646 314.578C183.646 316.443 183.921 318.016 184.471 319.296C185.03 320.577 185.812 321.548 186.817 322.21C187.823 322.872 189 323.203 190.35 323.203C191.699 323.203 192.876 322.872 193.882 322.21C194.888 321.548 195.665 320.577 196.215 319.296C196.774 318.016 197.053 316.443 197.053 314.578ZM203.925 301.377H209.352V309.885C209.352 310.899 209.528 311.716 209.881 312.335C210.233 312.945 210.779 313.388 211.518 313.663C212.266 313.929 213.224 314.062 214.393 314.062C214.805 314.062 215.291 314.049 215.85 314.024C216.408 313.989 216.984 313.942 217.577 313.882C218.179 313.822 218.746 313.749 219.279 313.663C219.812 313.577 220.254 313.478 220.607 313.366V317.775C220.246 317.895 219.795 318.003 219.253 318.097C218.72 318.183 218.157 318.261 217.564 318.33C216.971 318.39 216.395 318.437 215.837 318.471C215.278 318.506 214.797 318.523 214.393 318.523C212.27 318.523 210.422 318.222 208.849 317.62C207.277 317.01 206.06 316.069 205.201 314.797C204.35 313.525 203.925 311.888 203.925 309.885V301.377ZM219.64 301.377H225.093V327.779H219.64V301.377ZM232.473 311.136H238.764C240.861 311.136 242.666 311.475 244.179 312.154C245.7 312.825 246.873 313.774 247.699 315.003C248.524 316.232 248.932 317.681 248.923 319.348C248.932 321.007 248.524 322.472 247.699 323.744C246.873 325.008 245.7 325.996 244.179 326.709C242.666 327.423 240.861 327.779 238.764 327.779H228.902V301.377H234.471V323.293H238.764C239.77 323.293 240.617 323.112 241.304 322.751C241.992 322.382 242.512 321.896 242.864 321.295C243.225 320.684 243.401 320.018 243.393 319.296C243.401 318.248 243.006 317.363 242.207 316.641C241.416 315.91 240.268 315.545 238.764 315.545H232.473V311.136Z" fill="#9D9D9D"/>
</svg>
