<svg width="205" height="205" viewBox="0 0 205 205" fill="none" xmlns="http://www.w3.org/2000/svg">
<g clip-path="url(#clip0_3297_420)">
<path d="M92.1514 35.9834C94.0219 24.7332 110.194 24.7332 112.064 35.9834C114.368 49.8382 130.4 56.4787 141.825 48.3105C151.103 41.6782 162.538 53.1138 155.905 62.3916C147.737 73.817 154.378 89.8479 168.232 92.1514C179.483 94.0217 179.483 110.194 168.232 112.064C154.378 114.368 147.737 130.4 155.905 141.825C162.538 151.103 151.103 162.538 141.825 155.905C130.4 147.737 114.368 154.378 112.064 168.232C110.194 179.483 94.0217 179.483 92.1514 168.232C89.8479 154.378 73.817 147.737 62.3916 155.905C53.1138 162.538 41.6782 151.103 48.3105 141.825C56.4787 130.4 49.8382 114.368 35.9834 112.064C24.7332 110.194 24.7332 94.0219 35.9834 92.1514C49.8382 89.8481 56.4786 73.8171 48.3105 62.3916C41.6777 53.1137 53.1137 41.6777 62.3916 48.3105C73.8171 56.4786 89.8481 49.8382 92.1514 35.9834Z" stroke="white" stroke-width="8.88627"/>
</g>
<defs>
<clipPath id="clip0_3297_420">
<rect width="205" height="205" fill="white"/>
</clipPath>
</defs>
</svg>
